<?xml version="1.0"?>
<svg version="1.1" xmlns="http://www.w3.org/2000/svg" width="200" height="36" style=""><path fill="#3f3f42" d="M28.416,25.722c0,3.744-2.288,6.63-6.344,6.63c-4.238,0-6.188-2.86-6.188-6.656c0-3.744,2.288-6.604,6.344-6.604c4.238,0,6.188,2.808,6.188,6.63z M25.166,25.722c0-2.132-0.676-4.16-2.964-4.16c-2.314,0-3.068,2.002-3.068,4.082c0,2.132,0.65,4.238,2.964,4.238c2.288,0,3.068-2.028,3.068-4.16z M35.631,31.39c0,0.442-0.208,0.65-0.572,0.65l-1.976,0c-0.364,0-0.598-0.182-0.598-0.624l0-17.056c0-0.442,0.182-0.572,0.52-0.624l1.872-0.26c0.052,0,0.13-0.026,0.182-0.026c0.312,0,0.572,0.156,0.572,0.572l0,17.368z M52.7,31.546c0,0.312-0.208,0.494-0.52,0.494l-1.248,0c-1.352,0-1.95-0.65-2.132-1.534l-0.052,0c-0.65,0.962-2.34,1.846-3.77,1.846c-3.666,0-5.33-3.016-5.33-6.396c0-4.498,2.704-6.864,5.616-6.864c1.378,0,2.678,0.624,3.328,1.508l0.052-0.702c0.026-0.286,0.234-0.468,0.546-0.468l1.82,0c0.338,0,0.546,0.182,0.546,0.572l0,9.022c0,0.364,0.052,0.624,0.156,0.754c0.078,0.078,0.182,0.104,0.312,0.104l0.208,0c0.312,0,0.468,0.104,0.468,0.442l0,1.222z M48.41,28.01l0-5.018c-0.52-0.754-1.586-1.326-2.574-1.326c-1.586,0-2.938,1.352-2.938,4.082c0,2.184,0.832,4.03,2.756,4.03c1.274,0,2.366-0.962,2.756-1.768z M73.227,19.768c0,0.078,0,0.13-0.026,0.208l-3.484,11.44c-0.13,0.39-0.338,0.624-0.806,0.624l-1.768,0c-0.468,0-0.676-0.234-0.806-0.65l-2.158-7.41l-0.052,0l-2.132,7.462c-0.13,0.416-0.364,0.598-0.832,0.598l-1.742,0c-0.416,0-0.702-0.26-0.806-0.624l-3.406-11.44c-0.026-0.078-0.026-0.156-0.026-0.208c0-0.234,0.182-0.338,0.52-0.338l2.132,0c0.494,0,0.65,0.182,0.728,0.494l1.872,8.216l0.026,0l2.418-8.19c0.104-0.39,0.364-0.52,0.702-0.52l1.456,0c0.39,0,0.624,0.13,0.702,0.442l2.366,8.32l0.026,0l1.95-8.19c0.078-0.364,0.286-0.572,0.754-0.572l2.002,0c0.312,0,0.39,0.156,0.39,0.338z M88.996,31.546c0,0.312-0.208,0.494-0.52,0.494l-1.248,0c-1.352,0-1.95-0.65-2.132-1.534l-0.052,0c-0.65,0.962-2.34,1.846-3.77,1.846c-3.666,0-5.33-3.016-5.33-6.396c0-4.498,2.704-6.864,5.616-6.864c1.378,0,2.678,0.624,3.328,1.508l0.052-0.702c0.026-0.286,0.234-0.468,0.546-0.468l1.82,0c0.338,0,0.546,0.182,0.546,0.572l0,9.022c0,0.364,0.052,0.624,0.156,0.754c0.078,0.078,0.182,0.104,0.312,0.104l0.208,0c0.312,0,0.468,0.104,0.468,0.442l0,1.222z M84.706,28.01l0-5.018c-0.52-0.754-1.586-1.326-2.574-1.326c-1.586,0-2.938,1.352-2.938,4.082c0,2.184,0.832,4.03,2.756,4.03c1.274,0,2.366-0.962,2.756-1.768z M95.951,31.39c0,0.442-0.208,0.65-0.572,0.65l-1.976,0c-0.364,0-0.598-0.182-0.598-0.624l0-17.056c0-0.442,0.182-0.572,0.52-0.624l1.872-0.26c0.052,0,0.13-0.026,0.182-0.026c0.312,0,0.572,0.156,0.572,0.572l0,17.368z M111.798,25.696c0,0.624-0.208,0.754-0.858,0.754l-7.618,0c0.208,2.002,1.664,3.38,3.718,3.38c1.092,0,2.236-0.26,3.198-0.624c0.104-0.026,0.182-0.078,0.286-0.078c0.182,0,0.312,0.104,0.364,0.312l0.364,1.326c0.026,0.13,0.052,0.234,0.052,0.312c0,0.182-0.104,0.312-0.416,0.442c-1.274,0.572-3.016,0.832-4.368,0.832c-4.082,0-6.5-2.6-6.5-6.656c0-3.9,2.574-6.604,6.448-6.604c1.586,0,2.886,0.598,3.796,1.56c1.196,1.248,1.534,2.886,1.534,4.654l0,0.39z M108.704,24.396l0-0.286c-0.052-1.352-0.832-2.6-2.418-2.6c-1.69,0-2.704,1.352-2.912,2.886l5.33,0z"/><path fill="#8adbde" d="M137.385,23.32c0,6.328-3.612,10.136-8.624,10.136c-5.348,0-8.428-3.892-8.428-9.968c0-6.02,3.36-10.108,8.624-10.108c5.544,0,8.428,4.2,8.428,9.94z M133.521,23.404c0-4.704-1.652-6.972-4.648-6.972c-2.8,0-4.676,2.604-4.676,6.972c0,4.648,1.708,7,4.676,7c2.772,0,4.648-2.436,4.648-7z M150.419,32.28c0,0.28-0.14,0.42-0.42,0.532c-0.868,0.364-2.016,0.644-3.136,0.644c-1.428,0-2.66-0.364-3.36-1.176c-0.868-0.98-0.896-2.128-0.896-4.172l0-6.244l-1.316,0c-0.532,0-0.616-0.112-0.616-0.7l0-1.064c0-0.336,0.168-0.56,0.504-0.56l1.428,0l0-3.052c0-0.476,0.252-0.616,0.7-0.672l2.016-0.252l0.14,0c0.364,0,0.532,0.196,0.532,0.616l0,3.36l3.164,0c0.336,0,0.532,0.112,0.532,0.476l0,1.316c0,0.336-0.224,0.532-0.56,0.532l-3.136,0l0,6.412c0,0.84,0.056,1.456,0.364,1.904c0.252,0.364,0.644,0.588,1.316,0.588c0.7,0,1.288-0.168,1.792-0.336c0.112-0.028,0.196-0.056,0.28-0.056c0.196,0,0.308,0.112,0.364,0.336l0.28,1.4c0.028,0.084,0.028,0.112,0.028,0.168z M166.337,32.336c0,0.588-0.168,0.784-0.728,0.784l-1.792,0c-0.364,0-0.644-0.196-0.672-0.56l-0.028-0.7c-1.288,1.036-2.828,1.596-4.452,1.596c-3.136,0-4.424-1.988-4.424-5.012l0-8.26c0-0.476,0.28-0.644,0.728-0.644l1.96,0c0.448,0,0.7,0.14,0.7,0.644l0,7.672c0,1.54,0.392,2.604,2.072,2.604c1.064,0,2.408-0.588,3.248-1.344l0-8.932c0-0.476,0.252-0.644,0.7-0.644l1.988,0c0.448,0,0.7,0.14,0.7,0.644l0,12.152z M184.299,26.344c0,3.864-1.988,7.112-6.16,7.112c-1.26,0-2.772-0.728-3.556-1.596l-0.112,0.924c-0.028,0.252-0.252,0.336-0.616,0.336l-1.68,0c-0.476,0-0.672-0.224-0.672-0.7l0-18.256c0-0.448,0.112-0.7,0.56-0.756l2.072-0.28c0.112-0.028,0.196-0.028,0.28-0.028c0.28,0,0.476,0.112,0.476,0.56l0,6.888c0.896-0.784,2.24-1.372,3.696-1.372c1.54,0,2.688,0.504,3.584,1.316c1.484,1.316,2.128,3.5,2.128,5.852z M180.799,26.372c0-2.268-0.7-4.34-3.024-4.34c-1.036,0-2.128,0.56-2.884,1.26l0,5.992c0.672,0.756,1.708,1.372,2.744,1.372c2.436,0,3.164-2.1,3.164-4.284z M200.777,32.336c0,0.588-0.168,0.784-0.728,0.784l-1.792,0c-0.364,0-0.644-0.196-0.672-0.56l-0.028-0.7c-1.288,1.036-2.828,1.596-4.452,1.596c-3.136,0-4.424-1.988-4.424-5.012l0-8.26c0-0.476,0.28-0.644,0.728-0.644l1.96,0c0.448,0,0.7,0.14,0.7,0.644l0,7.672c0,1.54,0.392,2.604,2.072,2.604c1.064,0,2.408-0.588,3.248-1.344l0-8.932c0-0.476,0.252-0.644,0.7-0.644l1.988,0c0.448,0,0.7,0.14,0.7,0.644l0,12.152z"/></svg>
